<svg viewBox="0 0 297 139.99" xmlns="http://www.w3.org/2000/svg"><path d="m0 88.1v-88.1h15.96v43.62l-2.68 14.26 2.56 14.38v15.84zm32.66 1.22c-4.22 0-8.04-.87-11.45-2.62s-6.15-4.16-8.23-7.25c-2.07-3.09-3.19-6.58-3.35-10.48v-20.96c.16-3.82 1.28-7.23 3.35-10.24 2.07-3 4.83-5.38 8.29-7.13 3.45-1.75 7.25-2.62 11.39-2.62 5.44 0 10.34 1.34 14.68 4.02s7.74 6.34 10.17 10.97c2.44 4.63 3.66 9.87 3.66 15.72s-1.24 10.97-3.72 15.6-5.87 8.29-10.17 10.97c-4.31 2.68-9.18 4.02-14.62 4.02zm-2.69-14.75c2.92 0 5.48-.69 7.68-2.07 2.19-1.38 3.92-3.25 5.18-5.6 1.26-2.36 1.89-5.12 1.89-8.29 0-3-.63-5.71-1.89-8.1-1.26-2.4-3.01-4.28-5.24-5.67-2.24-1.38-4.81-2.07-7.74-2.07s-5.5.69-7.74 2.07c-2.23 1.38-3.96 3.25-5.18 5.6-1.22 2.36-1.83 5.12-1.83 8.29s.61 5.81 1.83 8.16c1.22 2.36 2.96 4.22 5.24 5.6 2.27 1.38 4.87 2.07 7.8 2.07z" fill="#1f5173"/><path d="m100.28 89.44c-6.34 0-11.98-1.36-16.94-4.08s-8.81-6.42-11.58-11.09c-2.76-4.67-4.14-9.93-4.14-15.78s1.38-10.95 4.14-15.54 6.54-8.24 11.33-10.97c4.79-2.72 10.24-4.08 16.33-4.08s11.53 1.4 15.84 4.2c4.3 2.8 7.72 6.8 10.24 12l-35.21 34.61-8.65-8.77 31.68-31.07-.37 11.09c-1.14-2.68-2.74-4.75-4.81-6.21s-4.93-2.19-8.59-2.19c-3.41 0-6.36.71-8.83 2.13-2.48 1.42-4.41 3.39-5.79 5.91s-2.07 5.4-2.07 8.65c0 3.41.73 6.46 2.19 9.14s3.53 4.75 6.21 6.21 5.77 2.19 9.26 2.19c3.09 0 5.85-.51 8.29-1.52s4.59-2.54 6.46-4.57l9.38 9.38c-2.92 3.41-6.46 5.99-10.6 7.74s-8.73 2.62-13.77 2.62z" fill="#1f5173"/><path d="m133.18 88.1v-34.12c0-5.12 1.1-9.65 3.29-13.59s5.3-7.01 9.32-9.2 8.67-3.29 13.95-3.29 9.56 1.14 13.34 3.41c3.78 2.28 6.68 5.57 8.71 9.87h-5.24c2.11-4.3 5.06-7.59 8.83-9.87 3.78-2.27 8.27-3.41 13.46-3.41s9.89 1.1 13.83 3.29 7.01 5.26 9.2 9.2 3.29 8.47 3.29 13.59v34.12h-16.08v-32.78c0-3.98-.96-7.07-2.86-9.26-1.91-2.19-4.57-3.29-7.98-3.29s-6.32 1.08-8.22 3.23c-1.91 2.15-2.86 5.26-2.86 9.32v32.78h-15.96v-32.78c0-4.06-.93-7.17-2.8-9.32s-4.55-3.23-8.04-3.23-6.3 1.08-8.16 3.23c-1.87 2.15-2.8 5.26-2.8 9.32v32.78h-16.21z" fill="#1f5173"/><path d="m288.77 32.36-23.51 22.97-9.42-9.2c3.93-3.69 10.96-4.07 15.77-1.98l11.45-11.18c-11.08-7.44-28.3-6.67-38.46 2.18-3.24 2.65-5.82 5.93-7.74 9.7l.17.17c6.97 6.81 21.21 20.71 28.22 27.56s0 0 0 0l31.72-30.98-8.23-9.22z" fill="#7be495"/><path d="m279.82 63.35c-.31 1.21-.71 2.37-1.27 3.43-1.26 2.36-3.05 4.22-5.36 5.61-1.3.78-2.75 1.28-4.27 1.62l-1.21 1.18-2.38 2.5-2.46-2.5-1.2-1.17c-1.52-.34-2.95-.84-4.25-1.63-2.28-1.38-4.05-3.25-5.3-5.61-.55-1.02-.92-2.14-1.23-3.3l-2.43-2.38-12.89-12.59c-1.06 3.13-1.79 6.4-1.79 9.98 0 5.85 1.38 11.11 4.14 15.78s6.51 8.36 11.27 11.09c4.75 2.72 10.09 4.08 16.02 4.08s11.41-1.36 16.2-4.08 8.57-6.44 11.33-11.15 4.14-9.95 4.14-15.72c0-3.59-.74-6.88-1.82-10.03l-15.24 14.88z" fill="#1f5173"/><g fill="#7be495"><path d="m14.42 112.24c-.55-.91-1.29-1.62-2.23-2.13s-2.07-.76-3.38-.76c-1.69 0-3.2.44-4.52 1.31-1.33.87-2.37 2.1-3.14 3.68s-1.15 3.44-1.15 5.58.36 3.89 1.09 5.49c.72 1.6 1.79 2.83 3.2 3.72 1.41.88 3.1 1.33 5.09 1.33.51 0 1.08-.03 1.71-.1s1.3-.19 2.01-.38 1.41-.43 2.11-.72l-.52-1.97c-.7.27-1.47.5-2.33.68-.86.19-1.72.28-2.57.28-1.29 0-2.47-.26-3.56-.78s-1.96-1.37-2.63-2.55-1.03-2.75-1.09-4.7c.91.03 1.96.03 3.16.02 1.19-.01 2.41-.05 3.64-.1s2.39-.14 3.46-.26 1.93-.29 2.57-.5c.24-1.39.29-2.7.14-3.92s-.5-2.29-1.05-3.2zm-1.39 5.79-10.46.2c.16-1.53.52-2.79 1.09-3.8.56-1.01 1.27-1.76 2.13-2.27s1.8-.76 2.81-.76c1.29 0 2.26.34 2.92 1.01s1.09 1.51 1.31 2.53c.21 1.02.28 2.05.2 3.1z"/><path d="m30.12 119.68 4.91-7.44 3.1-.6v-1.81h-4.19l-4.98 8.08-4.19-6.64v-1.44h-5.54v1.81l3.05.56 4.87 7.16-5.15 8.28-3.02.48v1.81h4.23l.84-1.44 4.26-7.32 4.79 7.56v1.2h5.31v-1.81l-2.98-.52z"/><path d="m57.21 110.79c-1.14-.96-2.55-1.45-4.24-1.45-1.18 0-2.32.23-3.42.7s-2.04.95-2.81 1.43v-2.13l-5.91.8v1.81h3.62v25.94l-3.62.28v1.81h9.85v-1.81l-3.82-.32v-9.49c.62.62 1.35 1.11 2.21 1.49s1.89.56 3.1.56c.7 0 1.43-.1 2.19-.3s1.51-.54 2.25-1.01 1.41-1.11 2.01-1.91 1.09-1.79 1.45-2.96.54-2.57.54-4.2c0-1.96-.28-3.75-.84-5.37s-1.41-2.92-2.55-3.88zm.18 13.79c-.48 1.21-1.17 2.11-2.05 2.71s-1.93.9-3.14.9-2.23-.2-3.16-.6c-.92-.4-1.66-.88-2.19-1.45v-13.07c.75-.43 1.65-.78 2.69-1.05 1.05-.27 1.98-.4 2.82-.4 1.96 0 3.4.76 4.34 2.29s1.41 3.57 1.41 6.11c0 1.82-.24 3.34-.72 4.54z"/><path d="m80.65 112.24c-.55-.91-1.29-1.62-2.23-2.13s-2.06-.76-3.38-.76c-1.69 0-3.2.44-4.52 1.31-1.33.87-2.37 2.1-3.14 3.68-.76 1.58-1.15 3.44-1.15 5.59s.36 3.89 1.09 5.49c.72 1.6 1.79 2.83 3.2 3.72 1.41.88 3.1 1.33 5.09 1.33.51 0 1.08-.03 1.71-.1s1.3-.19 2.01-.38 1.41-.43 2.11-.72l-.52-1.97c-.7.27-1.47.5-2.33.68-.86.19-1.72.28-2.57.28-1.29 0-2.47-.26-3.56-.78s-1.96-1.37-2.63-2.55-1.03-2.75-1.09-4.7c.91.03 1.96.03 3.16.02 1.19-.01 2.41-.05 3.64-.1s2.39-.14 3.46-.26 1.93-.29 2.57-.5c.24-1.39.29-2.7.14-3.92s-.5-2.29-1.05-3.2zm-1.39 5.79-10.46.2c.16-1.53.52-2.79 1.09-3.8.56-1.01 1.27-1.76 2.13-2.27s1.8-.76 2.81-.76c1.29 0 2.26.34 2.92 1.01s1.09 1.51 1.31 2.53c.21 1.02.28 2.05.2 3.1z"/><path d="m92.33 112.16v-2.81l-5.91.8v1.81h3.62v15.84l-3.62.32v1.81h10.58v-1.81l-4.54-.32v-14.28c.88-.59 1.97-1.01 3.26-1.25s2.61-.38 3.98-.4l.08-2.57c-1.64.03-3.08.25-4.34.66-1.26.42-2.29 1.15-3.1 2.19z"/><path d="m113.79 128.02c-.58.07-1.12.1-1.63.1-1.02 0-1.78-.19-2.29-.56-.51-.38-.84-.85-.98-1.43-.15-.58-.22-1.17-.22-1.79v-12.35h6.27v-2.29l-6.27.2v-6.19l-1.97.44-.44 5.83-3.46.12v1.89h3.42v11.86c0 1.64.24 2.94.72 3.9s1.14 1.65 1.97 2.05 1.78.6 2.86.6c.7 0 1.37-.07 2.01-.2s1.27-.29 1.89-.48l-.24-1.97c-.51.11-1.05.19-1.63.26z"/><path d="m124.91 109.34-6.04.81v1.81h3.62v15.84l-3.62.32v1.81h9.66v-1.81l-3.62-.32z"/><path d="m123.74 104.68c.54 0 .97-.17 1.29-.5s.48-.74.48-1.23-.16-.9-.48-1.25-.75-.52-1.29-.52c-.56 0-1.01.17-1.33.52s-.48.76-.48 1.25.16.89.48 1.23.76.5 1.33.5z"/><path d="m143.71 119.8c-.84-.48-1.76-.87-2.75-1.17-1.69-.54-3.04-1.07-4.06-1.61s-1.53-1.34-1.53-2.41c0-.94.45-1.7 1.35-2.29s2.06-.88 3.48-.88c.46 0 .97.03 1.55.08s1.21.16 1.91.32l.16 3.9h1.85l.32-5.11c-.59-.32-1.39-.62-2.41-.88-1.02-.27-2.15-.4-3.38-.4-2.2 0-3.94.53-5.23 1.59s-1.93 2.35-1.93 3.88c0 1.02.23 1.87.68 2.55.46.68 1.09 1.25 1.91 1.71s1.79.87 2.92 1.25c.99.32 1.92.66 2.77 1.01.86.35 1.55.78 2.09 1.31.54.52.8 1.21.8 2.07 0 1.1-.46 1.96-1.37 2.59s-2.08.94-3.5.94c-.8 0-1.55-.05-2.25-.16s-1.42-.29-2.17-.56l-.12-3.86h-1.89l-.36 5.11c.8.46 1.83.84 3.08 1.17s2.49.48 3.72.48c1.69 0 3.06-.29 4.12-.86 1.06-.58 1.84-1.32 2.33-2.23.5-.91.74-1.84.74-2.77 0-1.18-.26-2.14-.78-2.89s-1.21-1.37-2.05-1.85z"/><path d="m166.59 112.24c-.55-.91-1.29-1.62-2.23-2.13s-2.07-.76-3.38-.76c-1.69 0-3.2.44-4.52 1.31-1.33.87-2.37 2.1-3.14 3.68-.76 1.58-1.15 3.44-1.15 5.59s.36 3.89 1.09 5.49c.72 1.6 1.79 2.83 3.2 3.72 1.41.88 3.1 1.33 5.09 1.33.51 0 1.08-.03 1.71-.1s1.3-.19 2.01-.38 1.41-.43 2.11-.72l-.52-1.97c-.7.27-1.47.5-2.33.68-.86.19-1.72.28-2.57.28-1.29 0-2.47-.26-3.56-.78s-1.96-1.37-2.63-2.55-1.03-2.75-1.09-4.7c.91.03 1.96.03 3.16.02 1.19-.01 2.41-.05 3.64-.1s2.39-.14 3.46-.26 1.93-.29 2.57-.5c.24-1.39.29-2.7.14-3.92s-.5-2.29-1.05-3.2zm-1.39 5.79-10.46.2c.16-1.53.52-2.79 1.09-3.8.56-1.01 1.27-1.76 2.13-2.27s1.8-.76 2.81-.76c1.29 0 2.26.34 2.92 1.01s1.09 1.51 1.31 2.53c.21 1.02.28 2.05.2 3.1z"/><path d="m186.37 121.65c-.52-.75-1.21-1.37-2.05-1.85s-1.76-.87-2.75-1.17c-1.69-.54-3.04-1.07-4.06-1.61s-1.53-1.34-1.53-2.41c0-.94.45-1.7 1.35-2.29s2.06-.88 3.48-.88c.46 0 .97.03 1.55.08s1.21.16 1.91.32l.16 3.9h1.85l.32-5.11c-.59-.32-1.39-.62-2.41-.88-1.02-.27-2.15-.4-3.38-.4-2.2 0-3.94.53-5.23 1.59s-1.93 2.35-1.93 3.88c0 1.02.23 1.87.68 2.55.46.68 1.09 1.25 1.91 1.71s1.79.87 2.92 1.25c.99.32 1.92.66 2.77 1.01.86.35 1.55.78 2.09 1.31.54.52.8 1.21.8 2.07 0 1.1-.46 1.96-1.37 2.59s-2.08.94-3.5.94c-.8 0-1.55-.05-2.25-.16s-1.42-.29-2.17-.56l-.12-3.86h-1.89l-.36 5.11c.8.46 1.83.84 3.08 1.17 1.25.32 2.49.48 3.72.48 1.69 0 3.06-.29 4.12-.86 1.06-.58 1.84-1.32 2.33-2.23.5-.91.74-1.84.74-2.77 0-1.18-.26-2.14-.78-2.89z"/></g></svg>