<?xml version="1.0" encoding="UTF-8"?>
<svg id="Layer_2" data-name="Layer 2" xmlns="http://www.w3.org/2000/svg" xmlns:xlink="http://www.w3.org/1999/xlink" viewBox="0 0 216 216">
  <defs>
    <style>
      .cls-1 {
        fill: url(#linear-gradient);
        stroke-width: 0px;
      }
    </style>
    <linearGradient id="linear-gradient" x1="14.7" y1="14.7" x2="201.3" y2="201.3" gradientUnits="userSpaceOnUse">
      <stop offset="0" stop-color="#ffb703"/>
      <stop offset="1" stop-color="#fb8500"/>
    </linearGradient>
  </defs>
  <g id="Layer_1-2" data-name="Layer 1">
    <path class="cls-1" d="M165.82,0H50.18C22.47,0,0,22.47,0,50.18v115.64c0,27.71,22.47,50.18,50.18,50.18h115.64c27.71,0,50.18-22.47,50.18-50.18V50.18c0-27.71-22.47-50.18-50.18-50.18ZM96,156c0,19.88-16.12,36-36,36s-36-16.12-36-36v-24c0-6.63,5.37-12,12-12s12,5.37,12,12v24c0,6.63,5.37,12,12,12s12-5.37,12-12v-24c0-6.63,5.37-12,12-12s12,5.37,12,12v24ZM96,84c0,6.63-5.37,12-12,12s-12-5.37-12-12v-24c0-6.63-5.37-12-12-12s-12,5.37-12,12v24c0,6.63-5.37,12-12,12s-12-5.37-12-12v-24c0-19.88,16.12-36,36-36s36,16.12,36,36v24ZM192,156c0,19.88-16.12,36-36,36s-36-16.12-36-36v-24c0-6.63,5.37-12,12-12s12,5.37,12,12c0-6.63,5.37-12,12-12s12,5.37,12,12c0-6.63,5.37-12,12-12s12,5.37,12,12v24ZM192,60c0,19.88-16.12,36-36,36s-36-16.12-36-36v-24c0-6.63,5.37-12,12-12s12,5.37,12,12v24c0,6.63,5.37,12,12,12s12-5.37,12-12v-24c0-6.63,5.37-12,12-12s12,5.37,12,12v24Z"/>
  </g>
</svg>