<?xml version="1.0" standalone="no"?>
<!DOCTYPE svg PUBLIC "-//W3C//DTD SVG 20010904//EN"
 "http://www.w3.org/TR/2001/REC-SVG-20010904/DTD/svg10.dtd">
<svg version="1.0" xmlns="http://www.w3.org/2000/svg"
 width="625.000000pt" height="625.000000pt" viewBox="0 0 625.000000 625.000000"
 preserveAspectRatio="xMidYMid meet">
<metadata>
Created by potrace 1.14, written by Peter Selinger 2001-2017
</metadata>
<g transform="translate(0.000000,625.000000) scale(0.100000,-0.100000)"
fill="#000000" stroke="none">
<path d="M1822 3151 l3 -1836 328 0 c284 0 327 2 328 15 0 8 1 57 1 108 l1 93
31 -28 c17 -15 33 -31 36 -34 14 -15 102 -70 157 -98 152 -76 324 -112 513
-105 63 2 129 6 145 9 51 9 100 18 110 21 6 2 19 5 30 8 49 12 143 49 208 82
358 181 612 569 653 994 5 58 4 292 -1 335 -15 113 -23 154 -38 204 l-12 40
-101 -97 c-318 -304 -564 -546 -564 -556 0 -21 -61 -140 -97 -189 -65 -88
-189 -179 -288 -209 -59 -18 -71 -20 -170 -24 -126 -5 -214 14 -315 68 -157
82 -255 208 -301 386 -23 88 -33 256 -15 245 6 -4 85 -80 176 -169 91 -89 210
-206 265 -259 55 -53 123 -119 150 -146 l51 -49 119 116 c66 64 273 265 459
447 186 183 384 376 440 430 56 54 147 144 203 199 l102 101 -27 31 c-15 17
-41 46 -57 65 -17 19 -39 44 -50 55 -11 12 -54 60 -95 106 -41 47 -84 95 -95
107 l-20 23 -284 -278 c-156 -152 -377 -368 -490 -479 -191 -186 -207 -200
-222 -185 -9 10 -96 95 -193 191 l-178 174 24 21 c32 29 143 82 203 96 112 27
294 16 389 -24 l34 -14 119 115 c65 63 173 169 240 235 l123 121 -45 28 c-112
71 -317 145 -455 164 -25 3 -58 8 -75 11 -39 7 -265 7 -330 0 -119 -12 -285
-56 -398 -105 -27 -12 -52 -21 -55 -21 -4 0 -7 291 -7 648 l0 647 -333 1 -332
2 2 -1837z"/>
</g>
</svg>
